<?xml version="1.0" standalone="no"?>
<!DOCTYPE svg PUBLIC "-//W3C//DTD SVG 1.1//EN" "http://www.w3.org/Graphics/SVG/1.1/DTD/svg11.dtd" >
<svg xmlns="http://www.w3.org/2000/svg">
<metadata></metadata>
<defs>
<font id="paragonblack" horiz-adv-x="1251" >
<font-face units-per-em="2048" ascent="1536" descent="-512" />
<missing-glyph horiz-adv-x="512" />
<glyph horiz-adv-x="0" />
<glyph unicode="&#xd;" horiz-adv-x="512" />
<glyph unicode=" "  horiz-adv-x="512" />
<glyph unicode="&#x09;" horiz-adv-x="512" />
<glyph unicode="&#xa0;" horiz-adv-x="512" />
<glyph unicode="!" horiz-adv-x="690" d="M164 0v270h362v-270h-362zM164 426v1130h362v-1130h-362z" />
<glyph unicode="&#x22;" horiz-adv-x="1705" />
<glyph unicode="'" horiz-adv-x="483" d="M2 1286v270h363v-233q-37 -70 -64 -129q-23 -51 -42 -98t-19 -62l-162 2l76 250h-152z" />
<glyph unicode="," horiz-adv-x="505" d="M23 0v270h362v-233q-37 -70 -63 -129q-23 -51 -42.5 -98.5t-19.5 -61.5l-162 2l76 250h-151z" />
<glyph unicode="." horiz-adv-x="505" d="M20 0v270h363v-270h-363z" />
<glyph unicode="0" horiz-adv-x="1239" d="M137 770q0 211 24.5 363.5t82 251t153 145.5t236.5 47h12q145 0 239.5 -49t150 -148.5t78 -252t22.5 -359.5q0 -195 -20.5 -342t-74 -246.5t-149.5 -151t-246 -51.5h-12q-152 0 -248 66t-151.5 175.5t-76 252.5t-20.5 299zM500 768q0 -182 6 -286.5t21.5 -157t43 -64.5 t68.5 -12q43 0 69.5 13t41 65.5t19.5 156t5 285.5q0 180 -5 286.5t-19.5 162t-41 72t-69.5 16.5q-49 0 -76.5 -15.5t-41 -71t-17.5 -162t-4 -288.5z" />
<glyph unicode="1" horiz-adv-x="882" d="M102 1227l154 329h451v-1556h-363v1227h-242z" />
<glyph unicode="2" horiz-adv-x="1228" d="M102 0q0 152 29 263.5t75 195.5t105.5 144.5t121 109.5t120.5 91t105.5 88t75 100.5t28.5 129.5q0 33 -5 66t-21.5 59.5t-47.5 43t-82 16.5q-96 0 -134 -64.5t-38 -195.5h-330q0 14 -1 27t-1 26q0 117 29 206t90.5 149.5t159.5 91t237 30.5q236 0 370 -106.5t138 -348.5 q0 -117 -45 -207t-112.5 -163.5t-147.5 -135t-149.5 -117t-119.5 -110.5t-56 -119h682l-119 -270h-957z" />
<glyph unicode="3" horiz-adv-x="1267" d="M123 453v28.5t2 30.5h330q0 -131 36.5 -195.5t133.5 -64.5q51 0 84.5 16.5t53 43t27 60.5t7.5 66q0 43 -15.5 88t-52.5 80t-97.5 57.5t-148.5 22.5v207q90 0 150.5 18.5t96.5 50t51.5 73.5t15.5 89q0 33 -7.5 66t-27 59.5t-53 43t-84.5 16.5q-96 0 -133 -64.5t-37 -195.5 h-330q-2 16 -2 30.5v28.5q0 115 28.5 203t90 147.5t160 90t237.5 30.5q143 0 240.5 -34t157 -94t84 -144t24.5 -185q0 -66 -21.5 -120t-55.5 -96t-75 -73.5t-80 -50.5q37 -14 77 -43.5t74 -72.5t57.5 -100.5t23.5 -125.5q0 -100 -25.5 -185t-84 -146.5t-156 -95 t-240.5 -33.5q-139 0 -237.5 30.5t-160 90t-90 147.5t-28.5 205z" />
<glyph unicode="4" horiz-adv-x="1337" d="M74 385v283q172 248 307 444q57 84 112.5 164t98.5 142.5t70 101.5l26 39h363v-891h225l-123 -283h-102v-385h-363v385h-614zM317 668h371v555z" />
<glyph unicode="5" d="M109 0l131 283h387q59 0 103 17t74 45t44 62.5t14 67.5q0 35 -16.5 69t-48 59.5t-80.5 42t-115 16.5h-127q-111 0 -179.5 26.5t-107 68.5t-53 92t-18.5 97v162v86t2 78q6 80 34.5 134t75.5 88t110.5 48t139.5 14h342h258l-123 -284h-387q-37 0 -62.5 -4t-41.5 -16.5 t-23.5 -36t-7.5 -64.5v-84q0 -45 11.5 -69.5t33 -36t53 -13.5t72.5 -2h92q125 0 219.5 -40t158 -105.5t95 -149.5t31.5 -172q0 -109 -41 -196.5t-109.5 -150t-160.5 -96.5t-197 -36h-239h-344z" />
<glyph unicode="6" horiz-adv-x="1263" d="M123 395v758q0 86 33.5 163t98 135t161 93t223.5 35q137 0 236.5 -35t163 -94t93 -137t29.5 -164h-362q0 29 -8.5 57.5t-27 50t-49 35t-75.5 13.5q-43 0 -72.5 -13.5t-47 -35t-26 -50t-8.5 -57.5v-211q74 18 154 18q106 0 201.5 -32.5t166 -89t112.5 -132t42 -161.5v-146 q0 -84 -30.5 -159.5t-94 -133t-163 -91.5t-234.5 -34q-125 0 -221 34t-162 91.5t-99.5 133t-33.5 159.5zM485 408q0 -31 8.5 -58.5t26 -50.5t47 -36t72.5 -13q45 0 75.5 13t49 36t27 50.5t8.5 58.5v133q0 59 -44 100t-116 41t-113 -41t-41 -100v-133z" />
<glyph unicode="7" horiz-adv-x="1196" d="M76 1276l123 280h948l-463 -1556h-362l378 1276h-624z" />
<glyph unicode="8" horiz-adv-x="1284" d="M123 391v17v131q0 82 35 152.5t98 125.5q-63 55 -98 126t-35 153v73q0 82 35 157t100.5 131t161.5 89t219 33q133 0 231.5 -33t163 -89t96 -131t31.5 -157v-73q0 -82 -35.5 -153t-99.5 -126q63 -55 99 -125.5t36 -152.5v-131v-17q-4 -84 -34.5 -158.5t-94 -131 t-161 -90.5t-232.5 -34q-123 0 -218 34t-160.5 90.5t-100.5 131t-37 158.5zM485 408q0 -29 8.5 -57.5t26 -50t47 -35t72.5 -13.5q90 0 125 48t35 108v131q0 59 -42 99t-112 42h-12q-70 -2 -109 -42t-39 -99v-131zM485 1096q2 -63 44 -101.5t110 -40.5q74 2 117 42t43 100v55 q0 29 -8.5 57.5t-27 50t-49 35t-75.5 13.5q-43 0 -72.5 -13.5t-47 -35t-26 -50t-8.5 -57.5v-55z" />
<glyph unicode="9" horiz-adv-x="1243" d="M102 406h363q0 -29 8 -58t25.5 -50.5t47 -34.5t72.5 -13q90 0 125 48t35 108v221q-74 -18 -153 -19q-106 0 -201.5 33t-166.5 89t-113 132t-42 162v137q0 84 34 160t99.5 133t162 91t220.5 34q135 0 234.5 -34t163 -91t94.5 -133t31 -160v-772q0 -84 -31 -157.5 t-95.5 -131t-162.5 -90.5t-234 -33q-127 0 -223 35t-161.5 94.5t-98.5 136t-33 163.5zM465 1024q0 -59 44 -100t116 -41t112.5 41t40.5 100v125q0 29 -8 57.5t-26.5 50t-49 35t-76.5 13.5q-43 0 -72.5 -13.5t-47 -35t-25.5 -50t-8 -57.5v-125z" />
<glyph unicode="?" horiz-adv-x="1267" d="M123 1077.5v28.5q0 117 28.5 205t90 147.5t160 90t237.5 30.5q137 0 231.5 -30.5t152.5 -86t87 -131.5t33 -168v-20t-2 -23q-6 -72 -34 -136t-65.5 -122.5t-78.5 -114t-77 -108.5t-58.5 -107.5t-22.5 -109.5h-363q0 84 23.5 153.5t60.5 128t80 110.5t80 104.5t63.5 107.5 t30.5 119q0 31 -7 59.5t-23.5 52t-47 37t-77.5 13.5q-96 0 -133 -64.5t-37 -195.5h-330q-2 16 -2 30.5zM444 0v270h363v-270h-363z" />
<glyph unicode="A" horiz-adv-x="1257" d="M102 0v1130q0 100 35 183.5t101.5 141.5t164 91t224.5 33q133 0 232 -33t165 -93t98.5 -142t32.5 -181v-1130h-369v424h-317v-424h-367zM469 711h317v419q0 29 -5 60t-21.5 55.5t-47 41t-83.5 16.5q-55 0 -87 -16.5t-48.5 -41t-20.5 -55.5t-4 -60v-419z" />
<glyph unicode="B" d="M119 0v1559h645q127 0 199.5 -34t108.5 -85t45 -109.5t9 -107.5v-187q0 -68 -25.5 -112.5t-56.5 -73.5q-37 -33 -79 -53q53 -14 96 -45q35 -27 65.5 -74t30.5 -125v-217q0 -49 -13.5 -107.5t-56.5 -109.5t-120.5 -85t-206.5 -34h-641zM485 289h168q51 0 79 2t41 17.5 t15.5 48t2.5 94.5v55q0 55 -2.5 85t-15.5 44t-40.5 16t-79.5 2h-168v-364zM485 940h168q39 0 60.5 2t32 14.5t12.5 40t2 78.5v74q0 45 -2 69.5t-13.5 37t-36 14.5t-69.5 2h-154v-332z" />
<glyph unicode="C" horiz-adv-x="1089" d="M123 330v297v307v293q0 47 9 104.5t44 107.5t104.5 83.5t190.5 33.5h555l-123 -282h-325q-35 0 -53.5 -4t-28 -16.5t-10.5 -36t-1 -64.5v-750q0 -43 2 -67.5t13.5 -36.5t35 -14t68.5 -2h430l-123 -283h-155h-250h-25q-127 0 -198.5 34t-106.5 83t-44 106.5t-9 106.5z" />
<glyph unicode="D" horiz-adv-x="1222" d="M115 0v1556h522q127 0 220 -32.5t154.5 -90t91.5 -132t30 -158.5v-723q0 -84 -30 -160t-91.5 -134t-154.5 -92t-220 -34h-522zM477 279h133q74 0 117 40.5t43 100.5v723q0 59 -43 100t-117 41h-133v-1005z" />
<glyph unicode="E" horiz-adv-x="1081" d="M98 336v887q0 180 93.5 258t273.5 78h534l-125 -287h-315q-35 0 -54.5 -4t-28.5 -16.5t-10 -37t-1 -65.5v-209h491l-125 -287h-366v-243q0 -68 6 -91.5t45 -27.5h494l-125 -289q-10 0 -51 -1t-95 -1h-278q-127 0 -200 34t-108.5 85t-45 109.5t-9.5 107.5z" />
<glyph unicode="F" horiz-adv-x="1101" d="M143 0v1223q0 180 93.5 258t273.5 78h534l-124 -287h-316q-35 0 -54.5 -4t-28.5 -16.5t-10 -37t-1 -65.5v-209h491l-124 -287h-367v-653h-367z" />
<glyph unicode="G" horiz-adv-x="1193" d="M113 399v824q0 180 93 258t273 78h275h336l-125 -287h-392q-35 0 -54 -4t-28.5 -16.5t-10.5 -37t-1 -65.5v-750q0 -59 35 -101t109 -42q72 0 101.5 42t29.5 101v146h-148l125 286h389v-286v-146q0 -88 -29.5 -164.5t-91 -134t-155.5 -90.5t-221 -33q-133 0 -228.5 33 t-159 90.5t-93 134t-29.5 164.5z" />
<glyph unicode="H" horiz-adv-x="1280" d="M106 0v1559h367v-621h318v621h368v-1559h-368v651h-318v-651h-367z" />
<glyph unicode="I" horiz-adv-x="612" d="M123 0v1556h369v-1556h-369z" />
<glyph unicode="J" horiz-adv-x="1222" d="M78 418v133h368v-129q0 -29 4.5 -59.5t19.5 -55t47 -41t85 -16.5q51 0 83 16.5t48.5 41t21.5 55t5 59.5v1134h368v-1138q0 -209 -123.5 -323.5t-404.5 -114.5q-250 0 -386 109.5t-136 328.5z" />
<glyph unicode="K" horiz-adv-x="1366" d="M113 0v1556h362v-585l467 585h373l-533 -638l570 -918h-389l-392 670l-96 -115v-555h-362z" />
<glyph unicode="L" horiz-adv-x="1024" d="M86 330v1226h363v-1153q0 -37 1 -60.5t8 -35.5t21.5 -17t40.5 -5h166h270l-125 -283q-10 0 -40.5 -1t-71.5 -1h-275q-127 0 -198.5 34t-106.5 83t-44 106.5t-9 106.5z" />
<glyph unicode="M" horiz-adv-x="1820" d="M109 0v1434q37 23 98 48t137 46.5t158 36t160 14.5t136 -17.5t101 -45.5q84 27 177 44t179 17q127 0 215.5 -24.5t142.5 -78t77.5 -135.5t23.5 -198v-1141h-366v1116q0 27 -4.5 52.5t-17.5 45t-38.5 30.5t-68.5 11q-35 0 -82 -10t-72 -20q6 -43 6 -80v-1145h-317v1116 q0 27 -4.5 52.5t-17.5 45t-38.5 30.5t-68.5 11q-35 0 -81 -11t-69 -21v-1223h-366z" />
<glyph unicode="N" d="M104 0v1434q37 23 98.5 48t137.5 46.5t158 36t159 14.5q254 0 367 -103.5t113 -332.5v-1143h-367v1116q0 55 -31.5 97t-117.5 42q-35 0 -81 -11t-69 -21v-1223h-367z" />
<glyph unicode="O" horiz-adv-x="1222" d="M82 422v708q0 100 35 183.5t101.5 141.5t163.5 90t224 32q133 0 232.5 -33t165 -92t98.5 -141t33 -181v-708q0 -98 -33 -179t-98.5 -139.5t-165 -91t-232.5 -32.5q-127 0 -224 31.5t-163.5 90t-101.5 139.5t-35 181zM449 428q0 -31 4 -61.5t20 -55t48 -41t87 -16.5 q53 0 84 16.5t47.5 41t21.5 55t5 61.5v700q0 31 -5 62t-21.5 55.5t-47.5 41t-84 16.5q-55 0 -87 -16.5t-48 -41t-20 -55.5t-4 -62v-700z" />
<glyph unicode="P" horiz-adv-x="1224" d="M111 0v1556h634q127 0 199 -33.5t107.5 -83.5t44 -107.5t8.5 -106.5v-305q0 -68 -8.5 -135.5t-42 -122t-102 -88t-189.5 -33.5h-123h-166v-541h-362zM473 823h166q39 0 59.5 2t30.5 14.5t12 40t2 76.5v195q0 43 -2 67.5t-13 37t-35.5 14.5t-69.5 2h-150v-449z" />
<glyph unicode="Q" horiz-adv-x="1224" d="M57 414v723q0 100 34 181t99.5 139.5t162 90t220.5 31.5q131 0 229.5 -33t164 -91t97.5 -140t32 -178v-723q0 -111 -45 -200t-131 -148l186 -187l-287 -112q-6 6 -29.5 28.5t-54 53l-64.5 64.5t-65 64h-33q-123 0 -219 32t-162.5 88.5t-100.5 137t-34 179.5zM420 420 q0 -29 4 -59.5t19.5 -55t47 -40t84.5 -15.5q51 0 83 15.5t48.5 40t21.5 55t5 59.5v717q0 29 -5 59.5t-21.5 55t-48 40t-83.5 15.5q-53 0 -84.5 -15.5t-47 -40t-19.5 -55.5t-4 -59v-717z" />
<glyph unicode="R" horiz-adv-x="1255" d="M119 0v1559h645q127 0 199.5 -34t108.5 -85t45 -108.5t9 -106.5v-301q0 -68 -25.5 -113t-56.5 -74q-37 -33 -79 -53q53 -14 96 -45q35 -27 65.5 -74t30.5 -125v-440h-369v75.5t1.5 123t1.5 122v72.5q0 55 -2.5 85t-15.5 44.5t-40.5 16.5t-79.5 2h-168v-541h-366zM485 827 h168q39 0 60.5 2t32 14.5t12.5 40t2 79.5v186q0 45 -2 69.5t-13.5 37t-36 14.5t-69.5 2h-154v-445z" />
<glyph unicode="S" horiz-adv-x="1196" d="M72 440h366q0 -37 4 -70.5t20.5 -60t48.5 -42t87 -15.5q49 0 79 13.5t47 36t24.5 49t7.5 55.5q0 88 -47 142t-120 95t-158 78t-161.5 90t-131 132t-62.5 204q-2 16 -2 40.5t4 35.5q29 170 159 263t359 93q135 0 235.5 -35t165 -96.5t96 -146t31.5 -185.5h-368 q0 35 -5.5 69t-21.5 60.5t-47 43t-84 16.5q-49 0 -80 -13.5t-48 -35t-23.5 -49t-6.5 -54.5q0 -63 50.5 -106t127 -82t164.5 -82t164 -105.5t125 -155t49 -227.5v-35.5t-4 -27.5q-29 -186 -153.5 -270.5t-366.5 -84.5q-258 0 -391 127t-133 336z" />
<glyph unicode="T" horiz-adv-x="1257" d="M51 1272v287h1155v-287h-393v-1272h-369v1272h-393z" />
<glyph unicode="U" d="M86 426v1133h367v-1133q0 -31 4 -61.5t20.5 -55t48 -41t86.5 -16.5q53 0 84 16.5t47.5 41t21.5 55t5 61.5v1133h369v-1133q0 -104 -28 -187t-90.5 -140.5t-163 -89.5t-247.5 -32q-127 0 -225 33t-164.5 91.5t-100.5 141.5t-34 183z" />
<glyph unicode="V" horiz-adv-x="1308" d="M20 1556h390l245 -1015l242 1015h391l-479 -1556h-305z" />
<glyph unicode="W" horiz-adv-x="1978" d="M20 1556h386l196 -1013l223 1013h326l225 -1013l195 1013h387l-385 -1556h-332l-252 1006l-252 -1006h-329z" />
<glyph unicode="X" horiz-adv-x="1370" d="M20 0l455 774l-455 782h418l248 -473l246 473h418l-455 -782l455 -774h-422l-242 463l-242 -463h-424z" />
<glyph unicode="Y" horiz-adv-x="1349" d="M10 1556h418l248 -473l246 473h417l-483 -780v-776h-362v774z" />
<glyph unicode="Z" horiz-adv-x="1165" d="M59 180q0 45 19.5 99.5t62.5 117.5l592 873q-10 2 -30.5 3t-36.5 1h-478l-120 285h419h136q51 0 93 -1.5t44 -1.5q147 0 240.5 -57t93.5 -168q0 -49 -22.5 -108.5t-70.5 -128.5l-552 -809h34.5t34.5 -2h477l121 -283h-342h-51h-270h-84h-113q-82 0 -139.5 47t-57.5 133z " />
<glyph unicode="a" horiz-adv-x="1071" d="M72 356v2v-2zM72 356q0 86 33.5 146.5t89 99.5t127 57.5t149.5 18.5q63 0 127 -12.5t123 -36.5v127q0 102 -39 145t-139 43q-59 0 -94 -17.5t-53.5 -43t-23.5 -54t-5 -51.5h-261q0 72 26 140.5t78 122t132 86t188 32.5q129 0 218.5 -26.5t144.5 -77.5t80.5 -126 t25.5 -171v-682q-70 -37 -149.5 -56.5t-151.5 -29.5q-82 -10 -163 -13q-123 0 -210 29t-143.5 79t-83 119.5t-26.5 151.5zM72 358v9v-9zM72 371v2v-2zM340 356q0 -47 17.5 -77.5t45 -49t64.5 -26.5t76 -8q47 0 94 8t84 22v172q-29 20 -84 39t-133 19q-66 0 -115 -22.5 t-49 -76.5z" />
<glyph unicode="b" horiz-adv-x="1028" d="M61 416v1140h306v-415q92 18 174 18q94 0 173 -25.5t135 -77.5t88 -132t32 -189v-313q0 -94 -30 -175t-87 -140.5t-142 -93t-196 -33.5q-115 0 -200 32.5t-141 91t-84 138.5t-28 174zM367 418q0 -76 31.5 -127t115.5 -51t116 52t32 130v309q0 86 -37 124t-107 38 q-59 0 -151 -29v-446z" />
<glyph unicode="c" horiz-adv-x="1087" d="M86 418v317q0 94 28.5 172t85 134.5t142.5 87t203 30.5q119 0 205 -31.5t143 -89t85 -138.5t28 -177h-310q0 78 -33.5 133t-117.5 55t-117 -51t-33 -125v-317q0 -74 34 -125t116 -51q84 0 117.5 55t33.5 133h310q0 -96 -25 -179t-80 -143.5t-143 -95.5t-213 -35 q-117 0 -203 34t-142.5 92.5t-85 139.5t-28.5 175z" />
<glyph unicode="d" horiz-adv-x="1095" d="M72 416v334q0 190 126 297.5t386 111.5h48t48 -4v404h311v-1131q0 -96 -29.5 -179t-88 -143.5t-144.5 -94.5t-199 -34q-117 0 -202.5 33t-142 91.5t-85 139.5t-28.5 175zM381 416q0 -86 32.5 -131t116.5 -45q86 0 118 48t32 140v469q-66 16 -121 16q-76 0 -127 -37.5 t-51 -138.5v-321z" />
<glyph unicode="e" horiz-adv-x="1034" d="M72 485v250q0 94 27.5 172t83 134.5t140.5 87t201 30.5q129 0 214 -40t135.5 -105.5t70 -153.5t19.5 -182v-193h-601q0 -43 2.5 -93t17.5 -93t48 -71.5t94 -28.5q43 0 70 12t43 29.5t24.5 37t14.5 35.5h282q-10 -76 -38.5 -137t-80 -104t-129 -65.5t-186.5 -22.5 q-123 0 -210 43t-140 112.5t-77.5 159.5t-24.5 186zM362 678h326v24q0 39 -3 81t-18.5 78t-48 59.5t-94.5 23.5q-86 0 -124 -52t-38 -157v-57z" />
<glyph unicode="f" horiz-adv-x="720" d="M123 0v1157q0 82 28.5 159t89 134t151.5 92t218 35q45 0 64 -10v-271q-8 4 -21.5 5.5t-31.5 1.5q-25 0 -58 -4.5t-63.5 -18.5t-51 -43t-20.5 -80v-29h277l-140 -276h-137v-852h-305z" />
<glyph unicode="g" horiz-adv-x="1056" d="M61 -125h285q0 -61 48 -94t106 -33q90 0 128 36t38 114v114q-68 -18 -148 -18q-117 0 -202 33.5t-141 92t-84 139.5t-28 175v311q0 84 31 158t93.5 130.5t157.5 90t224 35.5q106 0 213 -23.5t189 -82.5v-1110q0 -90 -22.5 -166t-76 -130.5t-141.5 -84t-217 -29.5 q-98 0 -181 23.5t-143.5 68.5t-94.5 108.5t-34 141.5zM369 434q0 -88 31.5 -135t117.5 -47q78 0 111 42t37 126v481q-66 16 -119 17q-74 0 -126 -38t-52 -137v-309z" />
<glyph unicode="h" horiz-adv-x="1052" d="M86 0v1556h305v-428h76q131 0 227.5 -31.5t161 -85t97 -127t34.5 -155.5h2v-729h-307v713q0 55 -20.5 84.5t-51 42t-68.5 14.5t-75 2h-76v-856h-305z" />
<glyph unicode="i" horiz-adv-x="530" d="M102 1413q0 68 47.5 116t114.5 48q68 0 116 -48t48 -116q0 -66 -48 -114t-116 -48t-115 48.5t-47 113.5zM113 0v1126h305v-1126h-305z" />
<glyph unicode="j" horiz-adv-x="653" d="M55 -168q84 0 117 55.5t33 132.5v1106h309v-1106q0 -96 -29.5 -181t-88 -148.5t-143.5 -100t-198 -36.5v278zM195 1417q0 68 48 116t117 48q68 0 116 -48t48 -116q0 -70 -48 -118t-116 -48q-70 0 -117.5 48.5t-47.5 117.5z" />
<glyph unicode="k" horiz-adv-x="1110" d="M86 0v1559h309v-791l310 360h327l-385 -448l445 -680h-347l-282 463l-68 -80v-383h-309z" />
<glyph unicode="l" horiz-adv-x="514" d="M102 0v1559h310v-1559h-310z" />
<glyph unicode="m" horiz-adv-x="1486" d="M92 0v1061q57 33 115.5 51t106.5 28.5t84 13.5t51 3h8q86 0 153.5 -21.5t120.5 -62.5q47 41 110.5 63.5t149.5 22.5q111 0 190 -31.5t129 -90t72.5 -138.5t22.5 -174v-725h-305v725q0 66 -21.5 113t-87.5 47q-35 0 -55.5 -15.5t-29.5 -40t-11 -57.5t-2 -67v-13 q0 -6 1 -13t1 -13v-666h-307v692q0 39 -2 74t-14.5 61.5t-39 42t-75.5 15.5q-2 0 -24.5 -5.5t-35.5 -21.5v-858h-305z" />
<glyph unicode="n" horiz-adv-x="1081" d="M86 0v856v78q0 33 1 68.5t1 60.5q59 33 129 51.5t134.5 28.5t114.5 13t69 3h10q150 0 237.5 -37t135 -99t61.5 -145t14 -178v-700h-307v700q0 39 -7 73t-24.5 59.5t-46 40t-69.5 14.5q-14 0 -57.5 -4t-90.5 -27v-856h-305z" />
<glyph unicode="o" horiz-adv-x="1050" d="M72 424v313q0 94 27.5 172t83 133.5t140 86t201.5 30.5q246 0 350.5 -109.5t104.5 -320.5v-305q0 -96 -24.5 -177t-79 -140.5t-140.5 -93t-211 -33.5q-117 0 -201.5 33.5t-140 93t-83 140.5t-27.5 177zM377 418q0 -76 31.5 -129t115.5 -53q82 0 115 53t33 131v321 q0 80 -37 125t-111 45q-84 0 -115.5 -54t-31.5 -130v-309z" />
<glyph unicode="p" horiz-adv-x="1060" d="M74 -449v1502q84 59 190.5 82.5t214.5 23.5q129 0 224.5 -32.5t158 -90t94 -132.5t31.5 -159v-323q0 -96 -27.5 -177t-84 -140.5t-142.5 -93.5t-203 -34q-82 0 -149 19v-445h-307zM381 408q0 -84 35 -126t114 -42q86 0 117 47t33 135v317q0 100 -51 138t-127 38 q-55 0 -121 -16v-491z" />
<glyph unicode="q" horiz-adv-x="1052" d="M57 403v361q4 80 38 151.5t97.5 125t156.5 85t220 33.5q109 0 216.5 -23.5t191.5 -84.5v-1500h-311v445q-68 -18 -150 -19q-115 0 -200 32t-143 89.5t-87 135t-29 169.5zM367 410q0 -82 33.5 -125t115.5 -43t115 43t35 129v483q-66 16 -121 16q-76 0 -127 -37.5 t-51 -138.5v-327z" />
<glyph unicode="r" horiz-adv-x="876" d="M86 0v705q0 86 30.5 161.5t94 133t160 91t227.5 35.5h16h254l-141 -278h-166q-31 0 -61.5 -5t-53 -20.5t-37 -43t-14.5 -74.5v-705h-309z" />
<glyph unicode="s" horiz-adv-x="983" d="M82 293h285q0 -43 32.5 -77t89.5 -34q45 0 83 24.5t42 72.5q0 53 -38.5 93t-98 73.5t-128 68.5t-128 81t-98.5 107.5t-39 151.5q0 76 31.5 133t87 95t129.5 57.5t157 19.5q98 0 173 -25.5t124.5 -71.5t75 -107.5t25.5 -131.5h-271q0 20 -6 44t-20.5 44.5t-39 32.5 t-61.5 12q-57 0 -88.5 -29.5t-31.5 -72.5q0 -47 40 -82t98 -67.5t128 -68.5t128 -84t98 -112.5t40 -154.5q0 -76 -32.5 -133.5t-89 -95.5t-131.5 -57t-159 -19t-157.5 19t-129 58t-88 97.5t-32.5 138.5z" />
<glyph unicode="t" horiz-adv-x="749" d="M92 418v1138h307v-430h273l-140 -276h-133v-432q0 -51 21.5 -81t51.5 -46.5t63.5 -21.5t58.5 -5q37 0 53 6v-272q-10 -6 -26.5 -7t-36.5 -1q-127 0 -220.5 35.5t-153.5 95t-89 136.5t-29 161z" />
<glyph unicode="u" horiz-adv-x="1050" d="M63 446v680h312v-680q0 -78 32.5 -134t118.5 -56q14 0 58.5 4t91.5 27v839h311v-839q-2 -43 -2 -80v-129q-61 -35 -132 -54.5t-136.5 -29.5t-116.5 -13.5t-70 -3.5h-10q-152 0 -243 38t-138 101.5t-61.5 148.5t-14.5 181z" />
<glyph unicode="v" horiz-adv-x="1093" d="M27 1126h317l203 -741l198 741h322l-383 -1126h-274z" />
<glyph unicode="w" horiz-adv-x="1654" d="M20 1106h293l189 -723l203 723h264l202 -723l189 723h274l-338 -1106h-247l-211 659l-211 -659h-248z" />
<glyph unicode="x" horiz-adv-x="1036" d="M25 0l327 551l-327 555h315l178 -315l178 315h316l-328 -555l328 -551h-320l-174 311l-174 -311h-319z" />
<glyph unicode="y" horiz-adv-x="1110" d="M29 1126h323l201 -739l22 66l183 673h325l-378 -1110q-35 -96 -70 -182t-85 -150.5t-124 -101.5t-186 -37v250q39 0 65.5 17.5t46 47t33.5 66.5t31 74z" />
<glyph unicode="z" horiz-adv-x="995" d="M59 1128h371h51h166h17q109 0 172 -53t63 -137q0 -37 -14.5 -78t-46.5 -84l-412 -495h387l119 -281h-354h-37h-195h-127q-57 0 -99 40t-42 105q0 35 14 75t47 85l441 547h-404z" />
<glyph unicode="&#xc7;" horiz-adv-x="1089" d="M123 330v305v287v305q0 47 9 104.5t44 107.5t104.5 83.5t190.5 33.5h555l-123 -282h-325q-35 0 -53.5 -4t-28 -16.5t-10.5 -36t-1 -64.5v-750q0 -43 2 -67.5t13.5 -36.5t35 -14t68.5 -2h430l-123 -283h-188v-131v-270l-285 122v281q-111 6 -174 41t-94 83t-39 102.5 t-8 101.5z" />
<glyph unicode="&#xe7;" horiz-adv-x="1050" d="M72 418v313q0 94 27.5 173t83 135.5t140.5 88t201 31.5q117 0 203 -31.5t141.5 -88t83 -136.5t27.5 -174h-307q0 39 -7.5 73t-24.5 58.5t-46 38.5t-70 14q-84 0 -115.5 -53t-31.5 -129v-315q0 -78 31.5 -131.5t115.5 -53.5q82 0 115 54.5t33 132.5h307 q0 -80 -17.5 -150.5t-55.5 -127t-97 -95.5t-143 -57v-105v-198v-72l-283 123v252q-154 41 -232.5 156.5t-78.5 273.5z" />
<glyph unicode="&#x2000;" horiz-adv-x="790" />
<glyph unicode="&#x2001;" horiz-adv-x="1581" />
<glyph unicode="&#x2002;" horiz-adv-x="790" />
<glyph unicode="&#x2003;" horiz-adv-x="1581" />
<glyph unicode="&#x2004;" horiz-adv-x="527" />
<glyph unicode="&#x2005;" horiz-adv-x="395" />
<glyph unicode="&#x2006;" horiz-adv-x="263" />
<glyph unicode="&#x2007;" horiz-adv-x="263" />
<glyph unicode="&#x2008;" horiz-adv-x="197" />
<glyph unicode="&#x2009;" horiz-adv-x="316" />
<glyph unicode="&#x200a;" horiz-adv-x="87" />
<glyph unicode="&#x2019;" horiz-adv-x="1705" />
<glyph unicode="&#x201a;" horiz-adv-x="1705" />
<glyph unicode="&#x202f;" horiz-adv-x="316" />
<glyph unicode="&#x205f;" horiz-adv-x="395" />
<glyph unicode="&#x25fc;" horiz-adv-x="1105" d="M0 0v1106h1106v-1106h-1106z" />
</font>
</defs>
</svg>
