<?xml version="1.0" standalone="no"?>
<!DOCTYPE svg PUBLIC "-//W3C//DTD SVG 1.1//EN" "http://www.w3.org/Graphics/SVG/1.1/DTD/svg11.dtd" >
<svg xmlns="http://www.w3.org/2000/svg">
<metadata></metadata>
<defs>
<font id="paragonmedium" horiz-adv-x="378" >
<font-face units-per-em="2048" ascent="1536" descent="-512" />
<missing-glyph horiz-adv-x="512" />
<glyph horiz-adv-x="0" />
<glyph unicode="&#xd;" horiz-adv-x="512" />
<glyph unicode=" "  horiz-adv-x="512" />
<glyph unicode="&#x09;" horiz-adv-x="512" />
<glyph unicode="&#xa0;" horiz-adv-x="512" />
<glyph unicode="!" horiz-adv-x="563" d="M164 0v207h235v-207h-235zM184 432v1124h195v-1124h-195z" />
<glyph unicode="'" horiz-adv-x="356" d="M2 1352v207h236v-207h-2q-6 -14 -20.5 -56.5t-30 -88.5t-27 -87t-11.5 -53l-120 2l65 283h-90zM2 1352v207h236v-207h-236z" />
<glyph unicode="," d="M20 0v207h236v-207h-2q-6 -14 -20.5 -56t-30 -88t-26.5 -87t-11 -54l-121 2l66 283h-91z" />
<glyph unicode="." d="M20 0v207h236v-207h-236z" />
<glyph unicode="0" horiz-adv-x="1015" d="M59 770q0 190 12.5 341t56.5 254t127 157.5t224 54.5h15q143 0 227 -51t127 -152.5t54 -252t11 -351.5q0 -180 -9 -326.5t-50 -249t-126 -158.5t-234 -56h-15q-141 0 -224 55t-127 157.5t-56.5 249t-12.5 328.5zM264 770q0 -184 6 -308t29 -200t67 -107.5t119 -31.5 q82 0 127 32.5t66.5 108.5t26 200t4.5 306q0 180 -4.5 306t-26 206t-66.5 116t-127 36q-76 0 -119.5 -35t-66.5 -114t-29 -206t-6 -309z" />
<glyph unicode="1" horiz-adv-x="720" d="M102 1395l74 161h369v-1556h-195v1395h-248z" />
<glyph unicode="2" horiz-adv-x="1028" d="M92 1180q0 205 101.5 302t332.5 97t335 -97.5t104 -299.5v-2q0 -90 -27 -163t-71 -135.5t-100 -115.5t-114.5 -105.5t-115 -103.5t-100.5 -109.5t-70.5 -126t-28.5 -149.5h678l-70 -172h-833v41q0 186 48 316t121.5 225.5t158.5 165t158 134t122 134t49 164.5 q0 53 -10 97t-37 74.5t-74 47t-121 16.5q-135 0 -188 -59.5t-53 -175.5h-195z" />
<glyph unicode="3" horiz-adv-x="1267" d="M106 377h195q0 -117 53.5 -176.5t188.5 -59.5q74 0 121 16.5t73.5 47.5t36.5 75t10 97q0 55 -7 114.5t-43 106.5t-111.5 78t-212.5 31v165q119 0 192.5 19.5t113.5 58.5t54 96.5t14 133.5q0 53 -10 97t-36.5 74.5t-74 47t-120.5 16.5q-135 0 -188.5 -59.5t-53.5 -175.5 h-195q0 205 101.5 302t333.5 97q98 0 177 -20.5t135 -66.5t89 -121t37 -185v-6q0 -154 -40 -250.5t-128 -155.5q90 -49 129 -143t39 -254q0 -205 -103.5 -302.5t-334.5 -97.5t-333 97.5t-102 302.5z" />
<glyph unicode="4" horiz-adv-x="1159" d="M74 483v164l628 909h195v-909h201l-70 -164h-131v-483h-195v483h-628zM252 647h450v666q-63 -92 -134.5 -197.5t-136 -202t-114 -169t-65.5 -97.5z" />
<glyph unicode="5" horiz-adv-x="1052" d="M109 969v288h2q0 92 12 150.5t48 91.5t97.5 45t157.5 12h313h92q35 0 64 1.5t31 1.5l-72 -168h-350q-68 0 -107 -4.5t-59.5 -21.5t-25.5 -54t-5 -101v-135q0 -63 4 -100t22.5 -55.5t54.5 -22.5t99 -4q4 0 7 2h61q143 0 242.5 -67.5t149.5 -167t53.5 -215t-43 -215 t-143.5 -165t-247 -65.5h-182h-266l59 168h322q100 0 169.5 39t105.5 98.5t38 128t-30.5 128t-101.5 98t-175 38.5h-94h-2h-2q-86 0 -143.5 14.5t-91.5 47.5t-48 84t-14 125h-2z" />
<glyph unicode="6" horiz-adv-x="1097" d="M123 377v803q0 205 101.5 302t332.5 97t334.5 -97.5t103.5 -301.5h-194q0 53 -10.5 97t-37 74.5t-73.5 47t-121 16.5q-135 0 -188.5 -58.5t-53.5 -176.5v-299q92 39 240 39q229 0 332.5 -96.5t105.5 -297.5v-155q-2 -201 -105.5 -297.5t-332.5 -96.5q-231 0 -332.5 97.5 t-101.5 302.5zM317 377q0 -117 53.5 -176.5t188.5 -59.5q74 0 121 16.5t73.5 47.5t37 75t10.5 97v143q0 53 -10.5 97.5t-37 75t-73.5 47t-121 16.5q-135 0 -188.5 -59.5t-53.5 -176.5v-143z" />
<glyph unicode="7" horiz-adv-x="1073" d="M76 1395l71 164h402h147.5h138t113.5 -1.5t76 -1.5l-465 -1556h-201l418 1395h-700z" />
<glyph unicode="8" horiz-adv-x="1118" d="M123 367v161q0 213 121 308q-57 47 -89 116.5t-32 167.5v60q0 205 101.5 302t332.5 97q229 0 331.5 -94t106.5 -291v-49q-2 -106 -31.5 -183t-93.5 -126q125 -94 125 -308v-161q-2 -199 -105.5 -294.5t-332.5 -95.5t-330.5 95.5t-103.5 294.5zM317 373 q2 -117 54.5 -174.5t187.5 -57.5q74 0 121 16.5t73.5 47.5t37 75t10.5 97v141q0 53 -10.5 97t-37 75t-73.5 47.5t-121 16.5q-135 0 -187.5 -57.5t-54.5 -174.5v-149zM317 1153q0 -117 53.5 -175t188.5 -58q74 0 121 16t73.5 47t37 74t10.5 96v27q0 53 -10.5 97t-37 74.5 t-73.5 47t-121 16.5q-135 0 -188.5 -58.5t-53.5 -176.5v-27z" />
<glyph unicode="9" horiz-adv-x="1077" d="M102 377h195q0 -117 53 -176.5t189 -59.5q74 0 121 16.5t73.5 47.5t36.5 75t10 97v311q-90 -41 -243 -41q-231 0 -333 97.5t-102 299.5v136q0 205 101.5 302t333.5 97q227 0 330.5 -94t107.5 -291v-817q0 -205 -103.5 -302.5t-334.5 -97.5t-333 97.5t-102 302.5z M297 1044q0 -117 53 -175t189 -58q74 0 121 16.5t73.5 47t36.5 73.5t10 96v136q0 53 -10 96t-36.5 73.5t-74 47t-120.5 16.5q-135 0 -188.5 -57.5t-53.5 -173.5v-138z" />
<glyph unicode="?" horiz-adv-x="1101" d="M106 1180q0 205 101.5 302t333.5 97q231 0 334.5 -97t103.5 -300q0 -98 -25.5 -170t-62.5 -128.5t-80 -104.5t-80 -99t-61.5 -112.5t-24.5 -145.5h-205q0 98 26 172t63.5 133t81.5 109.5t83 101.5t64.5 109.5t25.5 132.5q0 53 -10 96t-36.5 73.5t-74 47t-120.5 16.5 q-135 0 -188.5 -58.5t-53.5 -174.5h-195zM424 0v207h238v-207h-238z" />
<glyph unicode="A" horiz-adv-x="1075" d="M102 0v1204q0 190 104.5 282.5t328.5 92.5q223 0 329.5 -92t106.5 -283l2 -1204h-195v485h-481v-485h-195zM297 649h481v533q0 53 -10 96t-36.5 73.5t-74 47t-120.5 16.5q-78 0 -125 -14.5t-73 -44t-34 -73.5t-8 -101v-533z" />
<glyph unicode="B" horiz-adv-x="1122" d="M119 0v1556h551q113 0 178 -19t99 -60t43 -103.5t9 -148.5v-195q0 -66 -13 -111t-30 -73q-20 -33 -43 -51q33 -14 58 -45q23 -27 40 -74t17 -123v-238q0 -92 -9 -152.5t-45 -96t-108.5 -51t-199.5 -15.5h-353h-194zM313 164h369q49 0 79 5t45 22.5t20 52.5t5 96v197 q0 55 -4 88.5t-19 52t-44 26t-78 7.5h-373v-547zM313 874h396q35 0 54 10.5t28.5 31t10.5 51t1 73.5v240q0 55 -16.5 84t-86.5 29h-387v-519z" />
<glyph unicode="C" horiz-adv-x="968" d="M123 332v893q0 80 8 141t38 104t85 64.5t147 21.5h512l-69 -163h-172h-152q-76 0 -117 -3.5t-60 -18.5t-22.5 -49t-3.5 -97v-273v-362v-258q0 -57 3.5 -90t16.5 -50.5t44 -21.5t86 -4h121h125h200l-71 -166h-445q-102 0 -157.5 25.5t-81 69.5t-30.5 104.5t-5 132.5z" />
<glyph unicode="D" horiz-adv-x="1056" d="M115 0v1554l26 2h414q215 0 313.5 -82.5t98.5 -275.5v-852q0 -96 -24.5 -160.5t-76 -105.5t-130.5 -59.5t-187 -20.5h-21h-413zM309 164h240q68 0 112 10t68.5 33.5t33.5 59.5t9 89v838q0 51 -9 89t-33.5 62.5t-69 36t-111.5 11.5h-240v-1229z" />
<glyph unicode="E" horiz-adv-x="972" d="M0 0h373q-102 0 -157.5 24.5t-81 69.5t-31 104.5t-5.5 131.5v895q0 80 8.5 141t38 104t85 64.5t147.5 21.5h524l-70 -163h-186h-151h-62q-35 0 -61.5 -4.5t-44 -21.5t-25.5 -51t-8 -91v-348h541l-72 -166h-469v-117v-264q0 -57 2 -90t16.5 -49.5t44 -21.5t84.5 -5h127h99 h215l-72 -164h-141h-293h-375z" />
<glyph unicode="F" horiz-adv-x="1005" d="M143 0v1225q0 80 8.5 141t38 104t85 64.5t147.5 21.5h526l-71 -163h-187h-151h-62q-35 0 -61.5 -4.5t-44 -21.5t-25.5 -51t-8 -91v-348h307h236l-74 -166h-469v-711h-195z" />
<glyph unicode="G" horiz-adv-x="1067" d="M113 373v852q0 80 8 141t37.5 104t85 64.5t147.5 21.5h271h331l-75 -165h-201q-78 0 -172 2h-37q-74 0 -115 -3.5t-60.5 -18.5t-22.5 -49t-3 -97v-617v-235q0 -57 8.5 -101.5t34 -73t72.5 -44t125 -15.5q74 0 121 16.5t73.5 47t36.5 73.5t10 97v241h-221l72 164h344v-405 q0 -203 -103.5 -299.5t-334.5 -96.5t-331.5 96.5t-100.5 299.5z" />
<glyph unicode="H" horiz-adv-x="1097" d="M106 0v1556h195v-682h481v682h195v-1556h-195v711h-481v-711h-195z" />
<glyph unicode="I" horiz-adv-x="440" d="M123 0v1556h194v-1556h-194z" />
<glyph unicode="J" horiz-adv-x="1056" d="M84 379h195q0 -59 8 -103.5t34.5 -73t73.5 -44t125 -15.5q74 0 121 16.5t73.5 47.5t37 75t10.5 97v1177h194v-1177q0 -205 -103.5 -302t-334.5 -97t-332.5 97t-101.5 302z" />
<glyph unicode="K" horiz-adv-x="1249" d="M113 0v1556h194v-755l631 755h240l-529 -638l586 -918h-254l-471 754l-203 -242v-512h-194z" />
<glyph unicode="L" horiz-adv-x="917" d="M86 332v1224h195v-1224q0 -57 3 -90t16 -50.5t44 -22.5t86 -5h127h78h215l-70 -164h-420q-102 0 -157.5 25.5t-81 69.5t-30.5 104.5t-5 132.5z" />
<glyph unicode="M" horiz-adv-x="1638" d="M109 0v1436q68 53 136 81.5t129.5 42t113 15.5t83.5 2q90 0 149.5 -21.5t98.5 -58.5q55 31 109.5 46.5t102.5 23.5t88 9t67 1q129 0 198.5 -44t101.5 -108.5t38 -139.5t6 -136v-1149h-195v1143q0 43 -3 90t-18.5 87t-48 65.5t-94.5 25.5q-16 0 -44.5 -2t-63.5 -8 t-74 -19.5t-74 -33.5v-1348h-194v1184v26q0 41 -6 77t-24.5 63.5t-51.5 44t-86 16.5q-14 0 -42 -2t-61.5 -8t-71.5 -19.5t-75 -33.5v-1348h-194z" />
<glyph unicode="N" horiz-adv-x="1081" d="M104 0v1438q66 53 142 81.5t146.5 42t129 15.5t90.5 2q131 0 204 -40t105.5 -101.5t39 -137t6.5 -147.5v-1153h-195v1196q0 47 -5 87t-24.5 68.5t-56.5 45t-100 16.5q-18 0 -52 -2t-74 -8t-82 -18.5t-79 -32.5v-1352h-195z" />
<glyph unicode="O" horiz-adv-x="1040" d="M82 365v823q0 199 101.5 295t330.5 96t332.5 -96.5t103.5 -294.5v-823q0 -199 -103.5 -293.5t-332.5 -94.5q-227 0 -329.5 95.5t-102.5 292.5zM276 375q0 -59 8.5 -102.5t34 -73t72.5 -44t125 -14.5q74 0 121 16.5t73.5 47.5t37 74t10.5 96v807q0 53 -10.5 97t-37 74.5 t-73.5 47t-121 16.5q-78 0 -125 -15.5t-72.5 -44t-34 -73.5t-8.5 -102v-807z" />
<glyph unicode="P" horiz-adv-x="1099" d="M111 0v1556h143h51h375q100 0 159.5 -19t90.5 -57t40 -95.5t9 -131.5v-360q0 -63 -8 -114.5t-37 -88.5t-82 -56.5t-143 -19.5h-404v-614h-194zM305 778h383q35 0 54.5 6.5t28.5 22.5t10 44t1 69v26v279q0 61 -3 94t-18.5 49t-49 19.5t-93.5 3.5h-313v-613z" />
<glyph unicode="Q" horiz-adv-x="1103" d="M57 362v816q0 203 101.5 302t333.5 99q231 0 334.5 -99.5t103.5 -301.5v-816q-2 -221 -137 -313l192 -192l-166 -66q-6 6 -27.5 26.5t-49 49.5t-59.5 60.5t-60 60.5q-29 -4 -62 -7.5t-69 -3.5q-229 0 -332 94.5t-103 290.5zM252 377q0 -59 8 -103.5t35 -73t74 -44 t125 -15.5q74 0 121 16.5t73.5 47.5t36.5 75t10 97v799q0 53 -10 97t-36.5 75.5t-74 49t-120.5 17.5q-78 0 -125 -15.5t-74 -46t-35 -75.5t-8 -102v-799z" />
<glyph unicode="R" horiz-adv-x="1124" d="M119 0v1556h155h39h383q100 0 159.5 -19t90.5 -57t40 -94.5t9 -130.5v-362q0 -68 -13 -105.5t-30 -58.5q-20 -23 -43 -31q33 -10 58 -36q23 -23 41 -68t18 -121v-473h-197v440q0 55 -4 89t-19 52.5t-45 25.5t-79 7h-369v-614h-194zM313 778h394q33 0 52 6.5t27.5 19.5 t10.5 36.5t2 60.5v326q0 61 -3 94t-18.5 49t-48.5 19.5t-92 3.5h-324v-615z" />
<glyph unicode="S" horiz-adv-x="1013" d="M72 375h194q0 -117 50.5 -175.5t189.5 -58.5q133 0 187.5 62.5t54.5 171.5q0 88 -50.5 151.5t-125 117.5t-162.5 104.5t-163 112t-125 142t-50 195.5q0 88 24.5 158.5t76.5 120t134 76t197 26.5q231 0 334.5 -96.5t103.5 -300.5h-194q0 53 -10.5 97t-37 74.5t-73.5 47 t-121 16.5q-135 0 -187.5 -59.5t-52.5 -175.5q0 -84 50.5 -144.5t125 -112t162.5 -101.5t163 -113.5t125 -147.5t50 -205q0 -86 -25.5 -155.5t-79 -119.5t-136.5 -78t-197 -28q-231 0 -331.5 97.5t-100.5 300.5z" />
<glyph unicode="T" horiz-adv-x="1181" d="M51 1393v163h1079v-163h-442v-1393h-194v1393h-443z" />
<glyph unicode="U" horiz-adv-x="1069" d="M86 360v15v1181h195v-1181q0 -59 8 -102.5t34.5 -73t72.5 -44t124 -14.5q74 0 121 16.5t73.5 47.5t37 74t10.5 96v1181h192v-1196q0 -195 -104.5 -289t-331.5 -94t-327.5 94.5t-104.5 288.5z" />
<glyph unicode="V" horiz-adv-x="1099" d="M20 1556h195l338 -1286l334 1286h192l-428 -1556h-194z" />
<glyph unicode="W" horiz-adv-x="1810" d="M20 1556h226l250 -1271l307 1271h194l308 -1271l274 1271h211l-373 -1556h-223l-295 1214l-291 -1214h-225z" />
<glyph unicode="X" horiz-adv-x="1191" d="M20 0l457 778l-454 781h239l334 -603l336 600h239l-454 -778l454 -778h-239l-336 616l-336 -616h-240z" />
<glyph unicode="Y" horiz-adv-x="1140" d="M10 1559h226l333 -601l336 598h225l-464 -776v-780h-195v780z" />
<glyph unicode="Z" horiz-adv-x="1093" d="M23 1556h348h71h273h139q80 0 126 -35.5t46 -103.5q0 -47 -25.5 -109.5t-78.5 -138.5l-699 -974h742l79 -195h-344h-520q-72 0 -111.5 45t-39.5 117q0 53 23.5 113.5t74.5 121.5l684 963h-709z" />
<glyph unicode="a" horiz-adv-x="999" d="M72 338q0 84 34.5 140.5t92 90t131 48t151.5 14.5q72 0 139.5 -10.5t131.5 -36.5v141q0 37 -6.5 82t-33 84t-82 64.5t-153.5 25.5q-225 0 -225 -188h-170q0 68 23.5 128t72.5 106t127 73.5t187 27.5q139 0 224 -33.5t131 -88t62.5 -124t16.5 -141.5v-694 q-200 -67 -380 -67h-5q-102 0 -187.5 19t-149 62t-98 112t-34.5 165zM250 334q0 -115 86 -169t231 -54q86 0 185 24v273q-23 29 -97.5 52t-173.5 23q-45 0 -87 -8t-73.5 -25.5t-51 -46t-19.5 -69.5z" />
<glyph unicode="b" horiz-adv-x="935" d="M61 451v1105h175v-466q72 20 136 29t122 9q182 0 282.5 -95t100.5 -283v-299q0 -100 -12.5 -186.5t-53.5 -150t-123 -99t-219 -35.5q-139 0 -220 35.5t-122 98t-53.5 148.5t-12.5 189zM236 434q0 -63 4 -119.5t25.5 -99.5t68.5 -67.5t135 -24.5t135 25.5t68.5 69.5 t25.5 104.5t4 132.5v295q0 111 -58 178t-183 67q-96 0 -225 -45v-516z" />
<glyph unicode="c" horiz-adv-x="980" d="M86 453v290h2q4 84 21.5 155t61.5 122t121 79.5t200 28.5q121 0 199.5 -25.5t124.5 -74.5t64.5 -123t18.5 -170h-174q0 51 -6 97.5t-29.5 80t-71 53t-126.5 19.5q-80 0 -125 -20.5t-69 -56.5t-31 -84t-7 -103v-268q0 -68 2 -127.5t22.5 -104.5t68.5 -71.5t139 -26.5 q82 0 128 19.5t69.5 53t29.5 78.5t6 99h174q0 -90 -12.5 -163t-53 -124t-122.5 -78.5t-219 -27.5q-139 0 -219 35.5t-122 99t-53.5 149.5t-11.5 189z" />
<glyph unicode="d" horiz-adv-x="989" d="M72 449v303q0 123 44 206.5t127 126.5t201 44h6q116 0 261 -39v450h174v-1087q0 -102 -12.5 -188.5t-53.5 -150t-123 -99t-219 -35.5t-218 35.5t-122 98t-53 148.5t-12 187zM246 453q0 -70 4 -130.5t25.5 -104.5t68.5 -69.5t133 -25.5q88 0 135 24.5t68.5 66.5t26 98.5 t4.5 119.5v520q-123 43 -211 44h-6q-84 0 -138 -28q-56 -28 -83 -85.5t-27 -130.5v-299z" />
<glyph unicode="e" horiz-adv-x="958" d="M72 453v200q0 102 11 189.5t53 151t123 99t220 35.5q129 0 209 -34.5t124 -97t59.5 -151.5t15.5 -198v-137h-641v-55q0 -72 4 -131.5t25.5 -104.5t68.5 -69.5t135 -24.5q133 0 182.5 54t49.5 153h34.5t47 1t49 1h43.5q0 -80 -18.5 -144.5t-64.5 -110.5t-125 -71.5 t-198 -25.5q-139 0 -220 35.5t-122 98t-53 148.5t-12 189zM246 647h467q0 86 -7.5 149.5t-31 105.5t-69.5 62.5t-126 20.5q-88 0 -135 -25.5t-68.5 -68.5t-25.5 -100.5t-4 -122.5v-21z" />
<glyph unicode="f" horiz-adv-x="647" d="M125 0v1210q0 131 26.5 205t79 109t129 42t177.5 7q23 0 38 -2t29 -6v-138h-18q-8 0 -18.5 1.5t-20.5 1.5q-86 0 -136.5 -16.5t-75 -47.5t-31.5 -75t-7 -101v-84h334l-74 -145h-260v-961h-172z" />
<glyph unicode="g" horiz-adv-x="966" d="M61 -125h175q0 -39 7 -75t31.5 -63.5t70.5 -44t122 -16.5q88 0 135 27t69.5 74t26.5 110.5t4 135.5q-88 -41 -233 -41q-139 0 -220 35.5t-122 99t-53.5 149.5t-12.5 187v297q0 188 100.5 283t280.5 95q72 0 157 -15t179 -48l96 -37v-1091q0 -90 -15 -165t-59 -128.5 t-124 -82t-209 -28.5q-111 0 -188.5 23.5t-126 67.5t-70 107.5t-21.5 143.5zM236 457q0 -72 4 -132.5t25.5 -104.5t68.5 -69.5t135 -25.5q80 0 127 20.5t69.5 57.5t29.5 85t7 103v66v493q-129 45 -225 45q-125 0 -183 -67.5t-58 -177.5v-293z" />
<glyph unicode="h" horiz-adv-x="960" d="M86 0v1556h174v-428h156q141 0 233 -22.5t147.5 -68.5t78 -113.5t22.5 -157.5v-766h-174v760q0 59 -14.5 101t-49 69.5t-94 41t-149.5 13.5h-156v-985h-174z" />
<glyph unicode="i" horiz-adv-x="407" d="M102 1475q0 43 30 72.5t71 29.5q43 0 72.5 -29.5t29.5 -72.5q0 -41 -29.5 -71t-72.5 -30q-41 0 -71 30t-30 71zM115 0v1108h176v-1108h-176z" />
<glyph unicode="j" horiz-adv-x="606" d="M55 -313q82 0 129 38.5t69.5 93t28 113t5.5 99.5v1077h174v-1077q0 -84 -15.5 -171t-59.5 -158t-124 -115t-207 -44v144zM276 1487q0 41 30 70.5t71 29.5t70.5 -29.5t29.5 -70.5t-29.5 -72t-70.5 -31t-71 31t-30 72z" />
<glyph unicode="k" horiz-adv-x="940" d="M86 0v1556h174v-856l383 406h234l-398 -426l443 -680h-220l-340 559l-102 -110v-449h-174z" />
<glyph unicode="l" d="M102 0v1556h174v-1556h-174z" />
<glyph unicode="m" horiz-adv-x="1439" d="M92 0v922v143q188 63 336 63q141 0 238 -59q92 31 172 45t149 14q176 0 273.5 -92t97.5 -278v-758h-174v750q0 111 -54.5 178t-177.5 67q-82 0 -188 -32q23 -41 36 -92.5t13 -112.5v-758h-176v750q0 111 -57.5 178t-184.5 67q-53 0 -129 -16v-979h-174z" />
<glyph unicode="n" horiz-adv-x="989" d="M86 0v1063q198 65 362 65h5q98 0 180 -23.5t142.5 -70.5t93 -117.5t32.5 -166.5v-750h-174v748q0 117 -81 183t-224 66q-78 0 -162 -20v-977h-174z" />
<glyph unicode="o" horiz-adv-x="958" d="M74 453v288q0 84 17.5 156t62.5 123t123.5 79.5t201.5 28.5t201 -28.5t122 -79.5t62.5 -123t22.5 -156v-286q0 -102 -11.5 -189.5t-53.5 -151t-123 -99t-220 -35.5t-219 35.5t-122 99t-53 149.5t-11 189zM246 432q0 -63 4 -119.5t25.5 -98.5t68.5 -66.5t135 -24.5 t135.5 25.5t69 69.5t25.5 104.5t4 132.5v198q0 70 -4 131.5t-25.5 105.5t-69 69.5t-135.5 25.5q-80 0 -126 -20.5t-70.5 -56.5t-30.5 -85t-6 -104v-287z" />
<glyph unicode="p" horiz-adv-x="962" d="M74 -446v1472l98 39q188 63 336 63q180 0 280.5 -95t100.5 -283v-299q0 -100 -12.5 -186.5t-53.5 -150t-123 -99t-219 -35.5q-76 0 -133 11t-100 32v-469h-174zM248 391q0 -55 6 -104t29.5 -85t70.5 -56.5t127 -20.5q86 0 133.5 24.5t69 69.5t25.5 104.5t4 131.5v295 q0 111 -57.5 178t-182.5 67q-96 0 -225 -45v-559z" />
<glyph unicode="q" horiz-adv-x="946" d="M57 449v290h41h-41q0 186 99.5 287.5t279.5 101.5q147 0 336 -73l98 -39v-1462h-174v466q-86 -40 -226 -40h-7q-137 0 -218 35.5t-122 98t-53.5 148.5t-12.5 187zM231 453q0 -72 4.5 -131.5t26 -104.5t68.5 -69.5t133 -24.5q80 0 127 20.5t70.5 56.5t29.5 84t6 103v553 q-129 45 -225 45q-125 0 -182.5 -67.5t-57.5 -178.5v-286z" />
<glyph unicode="r" horiz-adv-x="743" d="M86 0v737q0 106 18.5 177t69.5 114t138 61.5t227 18.5h196l-73 -145h-111q-88 0 -144.5 -9.5t-89 -34t-45 -68.5t-12.5 -114v-737h-174z" />
<glyph unicode="s" horiz-adv-x="878" d="M82 279h170q0 -96 50 -131t136 -35t137.5 31.5t51.5 117.5q0 57 -40 100.5t-101.5 81t-131 75.5t-131 83t-101.5 103.5t-40 140.5q0 145 95 213.5t261 68.5q164 0 261.5 -72.5t97.5 -226.5h-162q0 45 -15.5 75t-42 47.5t-62.5 23.5t-77 6q-37 0 -70.5 -5t-59 -20.5 t-41 -42t-15.5 -67.5q0 -57 40 -98t101.5 -78t131 -73t131 -82t101.5 -106.5t40 -146.5q0 -143 -97.5 -212.5t-261.5 -69.5q-166 0 -261 72.5t-95 226.5z" />
<glyph unicode="t" horiz-adv-x="634" d="M92 451v1105h174v-448h291l-74 -147h-217v-510q0 -96 9.5 -160t34 -100.5t70.5 -52t120 -15.5h57v-135q-23 -8 -68 -8q-143 0 -223 40.5t-118.5 106.5t-47 150.5t-8.5 173.5z" />
<glyph unicode="u" horiz-adv-x="952" d="M63 358v750h177v-251.5t1 -188.5t1 -134.5v-87.5v-86q0 -117 77.5 -181t219.5 -64q41 0 84 6t90 16v971h176v-1057q-102 -35 -198.5 -52t-182.5 -17q-98 0 -179 22.5t-140.5 69.5t-92.5 117.5t-33 166.5z" />
<glyph unicode="v" horiz-adv-x="991" d="M27 1108h196l271 -862l272 862h199l-390 -1108h-163z" />
<glyph unicode="w" horiz-adv-x="1677" d="M20 1108h195l270 -862l256 862h197l248 -862l272 862h199l-387 -1108h-180l-250 846l-256 -846h-99h-82z" />
<glyph unicode="x" horiz-adv-x="980" d="M25 0l362 551l-362 557h229l240 -424l239 424h223l-360 -555l360 -553h-227l-235 399l-236 -399h-233z" />
<glyph unicode="y" horiz-adv-x="1011" d="M29 1108h209l264 -877l96 332l178 545h207l-412 -1167q-29 -84 -57.5 -155t-70.5 -123t-103 -82t-158 -30v134q61 0 100.5 32.5t64 81.5t38.5 105.5t27 103.5z" />
<glyph unicode="z" horiz-adv-x="837" d="M66 106q0 33 13 74t48 90l461 676h-453l-69 162h239h51h189h80q59 0 95 -27.5t36 -81.5q0 -29 -11.5 -64.5t-39.5 -78.5l-459 -700h479l47 -156h-237h-35h-189h-137q-45 0 -76.5 26.5t-31.5 79.5z" />
<glyph unicode="&#xc7;" horiz-adv-x="968" d="M123 332v891q0 80 8 142t38 105t85 64.5t147 21.5h512l-69 -165h-172h-152h-14q-70 0 -108 -3.5t-56 -18.5t-21.5 -49t-3.5 -95v-260v-367v-266q0 -57 3.5 -90t16.5 -50.5t44 -22.5t86 -5h121h84h227l-72 -164h-243v-401l-164 71v330h-19q-102 0 -158.5 25.5t-83 69.5 t-31.5 104.5t-5 132.5z" />
<glyph unicode="&#xe7;" horiz-adv-x="958" d="M74 455v286q0 84 17.5 156t62.5 123t123.5 79.5t201.5 28.5q121 0 200 -25.5t125 -75.5t64.5 -124t18.5 -170h-174q0 51 -6.5 97.5t-30 81t-70.5 54t-127 19.5t-126 -20.5t-70.5 -56.5t-30.5 -85t-6 -104v-285q0 -63 4 -119.5t25.5 -98.5t68.5 -66.5t135 -24.5 q82 0 128 19.5t69.5 53t30 80t6.5 99.5h174q0 -84 -9.5 -152.5t-43 -120t-98 -82t-175.5 -38.5v-381l-164 71v312q-111 10 -174 50t-97 102.5t-43 143t-9 173.5z" />
<glyph unicode="&#x2000;" horiz-adv-x="793" />
<glyph unicode="&#x2001;" horiz-adv-x="1587" />
<glyph unicode="&#x2002;" horiz-adv-x="793" />
<glyph unicode="&#x2003;" horiz-adv-x="1587" />
<glyph unicode="&#x2004;" horiz-adv-x="529" />
<glyph unicode="&#x2005;" horiz-adv-x="396" />
<glyph unicode="&#x2006;" horiz-adv-x="264" />
<glyph unicode="&#x2007;" horiz-adv-x="264" />
<glyph unicode="&#x2008;" horiz-adv-x="198" />
<glyph unicode="&#x2009;" horiz-adv-x="317" />
<glyph unicode="&#x200a;" horiz-adv-x="88" />
<glyph unicode="&#x202f;" horiz-adv-x="317" />
<glyph unicode="&#x205f;" horiz-adv-x="396" />
<glyph unicode="&#x25fc;" horiz-adv-x="1105" d="M0 0v1106h1106v-1106h-1106z" />
</font>
</defs>
</svg>
